<?xml version="1.0" encoding="utf-8"?>
<!-- Generator: Adobe Illustrator 26.2.1, SVG Export Plug-In . SVG Version: 6.00 Build 0)  -->
<svg version="1.0" xmlns="http://www.w3.org/2000/svg" xmlns:xlink="http://www.w3.org/1999/xlink" x="0px" y="0px"
	 viewBox="0 0 1900 800" width="1900" height="800" style="enable-background:new 0 0 1900 800;" xml:space="preserve">
<style type="text/css">
	.st0{fill:#20C624;}
	.st1{fill:none;stroke:#20C624;stroke-width:12;stroke-miterlimit:10;}
</style>
<g id="bounds">
	<g>
		<path class="st0" d="M1898,2v796H2V2H1898 M1900,0H0v800h1900V0L1900,0z"/>
	</g>
</g>
<g id="path">
	<path class="st1" d="M169.26,649.23c24,5,59.54,5.89,74-14c16-22-13.53-46.02,2.3-118.33c12.2-55.71,32.82-73.92,104.82-67.92
		C362.07,449.95,443,445,485,535c33.01,70.74,177.29-39.03,203-146c13.69-56.97-264-70-218,13c33.67,60.76,88.56,29.74,123,44
		c21.73,9,14.32,97.31,33,103c38.58,11.76,63.53-17.02,83-65c21.91-54-7.81-125.88,13-113c42,26,31.1,89.02,51.92,84.63
		c51.46-10.87,115.17-7.38,148.92-10.06c47.4-3.77,10.42-87.33,101.42-93.33s120,15,323-22c101.29-18.46,182-10,290,0
		s107.14-34.05,113-69c5.24-31.25,11.52-83.46-29.94-136.04"/>
</g>
<g id="ghost">
	<circle class="st0" cx="1720.32" cy="125.2" r="25.33"/>
</g>
</svg>
